<?xml version="1.0" standalone="no"?>
<!DOCTYPE svg PUBLIC "-//W3C//DTD SVG 20010904//EN"
 "http://www.w3.org/TR/2001/REC-SVG-20010904/DTD/svg10.dtd">
<svg version="1.0" xmlns="http://www.w3.org/2000/svg"
 width="600.000000pt" height="600.000000pt" viewBox="0 0 600.000000 600.000000"
 preserveAspectRatio="xMidYMid meet">
<metadata>
Created by potrace 1.11, written by Peter Selinger 2001-2013
</metadata>
<g transform="translate(0.000000,600.000000) scale(0.100000,-0.100000)"
fill="#000000" stroke="none">
<path d="M779 5321 l-29 -29 0 -597 0 -596 25 -24 24 -25 601 0 601 0 24 25
25 24 0 598 c-1 454 -4 602 -13 614 -29 38 -40 39 -642 39 l-587 0 -29 -29z
m1101 -621 l0 -480 -480 0 -480 0 0 480 0 480 480 0 480 0 0 -480z"/>
<path d="M2474 5060 c-55 -22 -70 -95 -29 -135 l24 -25 1366 0 1366 0 24 25
c32 31 32 75 1 112 l-24 28 -1354 2 c-750 1 -1363 -2 -1374 -7z"/>
<path d="M2464 4488 c-22 -10 -44 -47 -44 -73 0 -27 22 -63 47 -74 17 -8 255
-11 809 -11 l786 0 29 29 c38 38 38 74 0 112 l-29 29 -789 -1 c-521 0 -795 -4
-809 -11z"/>
<path d="M789 3637 c-38 -29 -39 -40 -39 -637 0 -597 1 -608 39 -637 12 -9
160 -12 614 -13 l598 0 24 25 25 24 0 601 0 601 -25 24 -24 25 -598 0 c-454
-1 -602 -4 -614 -13z m1091 -637 l0 -480 -480 0 -480 0 0 480 0 480 480 0 480
0 0 -480z"/>
<path d="M2449 3341 c-37 -38 -39 -82 -4 -116 l24 -25 1366 0 1366 0 24 26
c34 37 33 78 -4 115 l-29 29 -1357 0 -1357 0 -29 -29z"/>
<path d="M2445 2775 c-35 -34 -33 -78 4 -116 l29 -29 784 0 c611 0 788 3 808
13 53 27 62 96 18 137 -21 20 -32 20 -820 20 l-799 0 -24 -25z"/>
<path d="M775 1925 l-25 -24 0 -596 0 -597 29 -29 29 -29 587 0 c602 0 613 1
642 39 9 12 12 160 13 614 l0 598 -25 24 -24 25 -601 0 -601 0 -24 -25z m1105
-625 l0 -480 -480 0 -480 0 0 480 0 480 480 0 480 0 0 -480z"/>
<path d="M2464 1658 c-22 -10 -44 -47 -44 -73 0 -27 22 -63 47 -74 34 -16
2702 -16 2736 0 52 24 60 87 18 130 l-29 29 -1354 -1 c-910 0 -1360 -4 -1374
-11z"/>
<path d="M2445 1075 c-32 -31 -32 -75 -1 -112 l24 -28 786 -3 c698 -2 790 -1
817 13 52 28 62 92 19 135 -20 20 -37 20 -820 20 l-801 0 -24 -25z"/>
</g>
</svg>
